# xmcd CD database file
#
# Track frame offsets:
#	150
#	5627
#	27081
#	54914
#	79457
#	108385
#	133504
#	158016
#	182032
#	207153
#	231649
#
# Disc length: 3502 seconds
#
# Revision: 0
# Processed by: cddbd v1.5.2PL0 Copyright (c) Steve Scherf et al.
# Submitted via: CDex 1.70beta2
#
DISCID=8d0dac0b
DTITLE=Jay Jesse Johnson - Play That Damn Guitar
DYEAR=2009
DGENRE=Blues Rock
TTITLE0=Inner Sanctum
TTITLE1=Hear No Evil
TTITLE2=Dream Away
TTITLE3=Bad Voodoo
TTITLE4=Blues For The Devil
TTITLE5=Play That Damn Guitar
TTITLE6=Bad Blood
TTITLE7=Rattlesnake Stomp
TTITLE8=Salt Of The Earth
TTITLE9=Shine On
TTITLE10=Six String Angel
EXTD=YEAR: 2009
EXTT0=
EXTT1=
EXTT2=
EXTT3=
EXTT4=
EXTT5=
EXTT6=
EXTT7=
EXTT8=
EXTT9=
EXTT10=
PLAYORDER=
